<svg xmlns="http://www.w3.org/2000/svg" width="24" height="25" viewBox="0 0 24 25"><g transform="translate(-949 -1210)"><g transform="translate(949 1210)" fill="#2f2f2f"><path d="M 22.23381042480469 19.49999809265137 L 1.766190052032471 19.49999809265137 C 1.50311005115509 19.49999809265137 1.374269962310791 19.32260894775391 1.331089973449707 19.24634742736816 C 1.287909984588623 19.17007827758789 1.20209002494812 18.96834754943848 1.337440013885498 18.74275779724121 L 11.57126045227051 1.686408281326294 C 11.70271015167236 1.467308282852173 11.91487979888916 1.443658232688904 12 1.443658232688904 C 12.08512020111084 1.443658232688904 12.29728984832764 1.467308282852173 12.42873954772949 1.686408281326294 L 22.66254997253418 18.74275779724121 C 22.79791069030762 18.96834754943848 22.71208953857422 19.17008781433105 22.66890907287598 19.24634742736816 C 22.62573051452637 19.32260894775391 22.49690055847168 19.49999809265137 22.23381042480469 19.49999809265137 Z" stroke="none"/><path d="M 11.99984550476074 1.943916320800781 L 12 1.943658828735352 L 1.766189575195312 18.99999809265137 L 22.23381042480469 19.00000762939453 L 11.99984550476074 1.943916320800781 M 12 0.9436531066894531 C 12.33164501190186 0.9436531066894531 12.66329002380371 1.105487823486328 12.85748958587646 1.429159164428711 L 23.09130096435547 18.48550796508789 C 23.49122047424316 19.15202903747559 23.01110076904297 19.99999809265137 22.23381042480469 19.99999809265137 L 1.766189575195312 19.99999809265137 C 0.9888896942138672 19.99999809265137 0.5087795257568359 19.15202903747559 0.9087009429931641 18.48550796508789 L 11.14251041412354 1.429159164428711 C 11.33670997619629 1.105487823486328 11.66835498809814 0.9436531066894531 12 0.9436531066894531 Z" stroke="none" fill="#2f2f2f"/></g><line x2="21" transform="translate(950.5 1233.5)" fill="none" stroke="#2f2f2f" stroke-linecap="round" stroke-width="3"/></g></svg>